<?xml version="1.0" encoding="utf-8"?>
<!-- Generator: Adobe Illustrator 28.0.0, SVG Export Plug-In . SVG Version: 6.00 Build 0)  -->
<svg version="1.1" id="Capa_1" xmlns="http://www.w3.org/2000/svg" xmlns:xlink="http://www.w3.org/1999/xlink" x="0px" y="0px"
	 viewBox="0 0 1961.9 686.9" style="enable-background:new 0 0 1961.9 686.9;" xml:space="preserve">
<style type="text/css">
	.st0{fill:#292621;stroke:#292621;stroke-width:0.25;stroke-linejoin:round;stroke-miterlimit:10;}
	.st1{fill:#CFDEDC;stroke:#292621;stroke-width:0.25;stroke-miterlimit:10;}
	.st2{fill:#D9DAD0;stroke:#292621;stroke-width:0.2572;stroke-miterlimit:10;}
	.st3{fill:#FC6E53;}
	.st4{fill:#292621;}
	.st5{font-family:'ArdoiseStd-NarrowBold';}
	.st6{font-size:3.5px;}
	.st7{font-size:2.5px;}
	.st8{fill:#D9DAD0;stroke:#292621;stroke-width:0.2681;stroke-miterlimit:10;}
	.st9{fill:#5B8C85;}
	.st10{fill:#F7F8F6;}
</style>
<g id="Viaducto_Frente">
	<g>
		<path class="st0" d="M1422.2,581.7c-4.4,0-8.6-0.7-12.1-1.9l-9.5-1.1l-0.5-0.2c-1.8-0.9-4-1.6-6.4-2l-86.2-14
			c-1.6-0.3-3.3-0.4-5-0.4L1268,562c-5.2,0-10.2-1.1-14.3-3.1l-35.5-15.5c-0.4-0.1-2.7-1-5.5-2.1c-6.9-2.6-15.5-3.1-23.1-1.3
			l-37.4,10.8c-6.7,1.4-17.2,1.4-24.3-1.7l-0.2-0.1l-44.9-23c-0.9-0.4-1.9-0.9-3-1.3l-29-10.9l-49.9-18.1l-0.3-0.2l-54.9-33
			l-59.3-20.6l-0.3-0.2l-61.6-42.3c-1.8-1.2-4.3-2-7.2-2.3l-41.2-3.5c-3.2,0.2-39.9,5.9-63.7,9.7h-0.1l-149.6,17.2
			c-13.3,1.6-25.4-1.3-31.5-7.7l-49.5-50h-0.1c-2-1.1-9.7-5.4-13.6-7.6c-3.4-1.9-6.2-5.7-9.3-9.7c-1.8-2.3-3.6-4.7-5.3-6.5
			c-4.5-4.6-15.1-10.6-15.2-10.6l-0.5-0.3l-0.3-0.4c-0.2-0.2-22.7-25.1-44.6-50.6c-15.8-18.4-31.5-37.3-39.9-47.5
			c-3.2-3.9-5.8-7-6.2-7.5c-11.4-10.9-30.4-14.8-47.3-9.7c-1.6,0.5-3.1,1-4.6,1.4c-7.7,2.5-15.7,5-26.7,5h-0.2c-1.5,0-3,0-4.5,0
			c-6,0.1-12.2,0.2-17.8-0.9c-17-3.3-29.9-5.1-40.2-6.6c-12.2-1.7-20.3-2.8-25.8-5.3c-3.1-1.4-7.2-4.4-11.9-8.9
			c-9-8.5-22.2-11-33.6-6.4l-0.9,0.3l-0.3-0.7l0.9-0.3c11.6-4.7,25.1-2.1,34.4,6.6c4.7,4.4,8.7,7.4,11.7,8.8
			c5.4,2.4,13.4,3.5,25.5,5.2c10.4,1.4,23.3,3.3,40.3,6.6c5.5,1.1,11.7,1,17.6,0.9c1.6,0,3.1,0,4.6,0h0.2c10.9,0,18.8-2.5,26.4-5
			c1.5-0.5,3.1-1,4.6-1.4c17.1-5.2,36.4-1.2,48.1,9.9c0.5,0.5,3,3.6,6.2,7.5c8.4,10.2,24.1,29.1,39.9,47.5
			c21.8,25.5,44.3,50.3,44.5,50.5l0.3,0.3l0.4,0.2c0.1,0.1,10.8,6.1,15.3,10.7c1.8,1.9,3.6,4.2,5.4,6.6c3,3.9,5.8,7.7,9.1,9.5
			c3.9,2.2,11.6,6.5,13.6,7.6l0.2,0.1l49.6,50c6,6.2,17.8,9,30.9,7.5l149.7-17.2c23.9-3.8,60.6-9.4,63.8-9.7l41.3,3.5
			c3,0.3,5.7,1.1,7.6,2.4l61.9,42.5l59.2,20.6l55.2,33.2l49.8,18.1l29.1,10.9c1.1,0.4,2.1,0.9,3.1,1.3l45.1,23.1
			c7,3,17.3,3,23.9,1.7l37.4-10.8c7.8-1.8,16.6-1.3,23.6,1.3c2.8,1.1,5.2,1.9,5.6,2.1l35.6,15.6c3.9,1.9,8.9,3,13.9,3l34.5,0.2
			c1.7,0,3.4,0.1,5.1,0.4l86.2,14c2.4,0.4,4.7,1.1,6.6,2l0.4,0.2l9.4,1c3.5,1.2,7.6,1.9,11.9,1.9c4.5,0,8.9-0.7,12.4-2.1l4.8-1.8
			l0.2-0.1c0.2-0.1,19.4-12.4,45.8-33c36.9-28.8,92.3-73.1,100.4-81.5c13.2-13.5,40.5-44.9,40.8-45.2l30.9-34.8
			c3.6-4.1,6.2-8.4,7.5-13l0.3-0.9c8.7-28.6,52.5-171.9,57.6-187.4c3.4-10.4,8.5-23.7,8.7-24.3s1.4-2.2,2.6-3.7l12.7-13
			c0.4-0.4,3.9-4.3,4.8-7.7l10.2-42l-0.3,2.6l-9.9,39.7c-0.8,3.8-3.9,7.5-4.3,7.9l-0.1,0.1l-12.6,12.9c-1.4,1.7-2.3,3.1-2.5,3.5
			c-0.2,0.6-5.4,13.9-8.7,24.2c-5,15.5-48.8,158.8-57.6,187.4l-0.3,0.9c-1.4,4.7-4,9.1-7.7,13.3l-30.9,34.8
			c-0.3,0.3-27.6,31.7-40.8,45.2c-8.2,8.4-63.6,52.8-100.5,81.5c-26.4,20.6-45.7,32.9-45.8,33.1l-0.3,0.2l-4.9,1.8
			C1431.3,581,1426.8,581.7,1422.2,581.7z"/>
	</g>
	<g>
		<path class="st1" d="M1422.2,581.1c-4.3,0-8.3-0.6-11.8-1.9l-9.6-1.1l-0.3-0.2c-1.9-0.9-4.2-1.6-6.6-2l-86.2-14
			c-1.7-0.3-3.4-0.4-5.2-0.4l-34.5-0.2c-5,0-9.9-1.1-13.9-3l-35.6-15.6c-0.4-0.1-2.7-1-5.5-2.1c-7-2.6-15.9-3.1-23.8-1.3l-37.3,10.8
			c-6.6,1.3-16.8,1.4-23.7-1.6l-45.1-23.1c-0.9-0.5-2-0.9-3.1-1.3l-29.1-10.9l-49.8-18.1L945.9,462l-59.3-20.6L824.8,399
			c-1.9-1.3-4.6-2.2-7.7-2.4l-41.3-3.5c-3.3,0.2-40,5.9-63.8,9.7L562.3,420c-13,1.6-24.8-1.3-30.7-7.4l-49.6-50l-0.3-0.2
			c-2.1-1.2-9.7-5.4-13.5-7.6c-3.2-1.8-6-5.5-9-9.4c-1.8-2.3-3.6-4.7-5.4-6.6c-4.6-4.7-15.3-10.7-15.4-10.8l-0.4-0.2l-0.2-0.2
			c-0.2-0.2-22.7-25.1-44.5-50.5c-15.8-18.4-31.5-37.3-39.9-47.5c-3.2-3.9-5.8-7-6.3-7.5c-11.6-11.1-31.1-15.2-48.3-10
			c-1.6,0.5-3.1,1-4.6,1.4c-7.6,2.4-15.5,4.9-26.4,4.9h-0.3c-1.5,0-3,0-4.6,0c-6,0.1-12.1,0.2-17.6-0.9c-17-3.3-29.9-5.1-40.3-6.6
			c-12.1-1.7-20.1-2.8-25.5-5.2c-3.1-1.4-7.1-4.4-12-8.9c-9.3-8.6-22.9-11.1-34.5-6.4l-0.7,0.3L132,190l0.7-0.3
			c11.9-4.8,25.7-2.3,35.3,6.5c4.9,4.5,8.8,7.4,11.8,8.8c5.3,2.4,13.2,3.5,25.3,5.2c10.4,1.5,23.4,3.3,40.4,6.6
			c5.4,1.1,11.5,1,17.4,0.9c1.7,0,3.2,0,4.7,0h0.3c10.7,0,18.5-2.5,26.1-4.9c1.5-0.5,3.1-1,4.7-1.5c17.5-5.3,37.2-1.2,49,10.2
			c0.5,0.6,3.1,3.7,6.3,7.6c8.4,10.2,24.1,29,39.9,47.5c21.9,25.5,44.3,50.3,44.5,50.5l0.2,0.2l0.2,0.1c0.1,0.1,10.8,6.1,15.6,10.9
			c1.9,1.9,3.7,4.3,5.5,6.7c2.9,3.9,5.7,7.5,8.8,9.2c3.9,2.2,11.4,6.4,13.5,7.6l0.5,0.3l49.6,50c5.8,6,17.3,8.7,30.1,7.2l149.7-17.2
			c23.9-3.8,60.6-9.4,63.9-9.7h0.1l41.3,3.5c3.2,0.3,6,1.2,8,2.6l61.8,42.4l59.2,20.6l0.2,0.1l55.1,33.1l49.7,18.1l29.1,10.9
			c1.1,0.4,2.2,0.9,3.2,1.4l45.1,23.1c6.8,2.9,16.8,2.9,23.2,1.6l37.3-10.8c8-1.9,17-1.4,24.2,1.3c2.8,1.1,5.2,1.9,5.6,2.1
			l35.6,15.6c3.8,1.9,8.6,2.9,13.5,2.9l34.5,0.2c1.8,0,3.5,0.2,5.3,0.4l86.2,14c2.5,0.4,4.9,1.1,6.9,2.1l0.3,0.1l9.5,1.1
			c3.4,1.2,7.4,1.8,11.6,1.8c4.4,0,8.6-0.7,12-2l4.9-1.9c0.1-0.1,19.3-12.3,45.6-32.9c36.8-28.8,92.2-73,100.3-81.4
			c12.6-12.9,37.9-41.9,40.7-45.1l30.9-34.8c3.5-4,6-8.2,7.3-12.6l0.3-1c8.7-28.6,52.5-171.8,57.6-187.4c3.4-10.5,8.5-23.8,8.8-24.3
			c0.4-0.9,1.9-2.9,2.8-4l12.8-13c1.4-1.5,3.9-4.7,4.6-7.3l10.6-42.2l0.7,0.1l-10.5,42.3c-0.7,2.7-3.3,6-4.7,7.6l-12.7,13
			c-1.1,1.3-2.4,3.1-2.6,3.8c-0.2,0.6-5.3,13.9-8.7,24.3c-5.1,15.6-48.9,158.9-57.6,187.4l-0.3,1c-1.4,4.5-3.9,8.8-7.5,12.9
			l-30.9,34.8c-2.9,3.3-28.1,32.2-40.8,45.2c-8.2,8.4-63.5,52.7-100.4,81.4c-26.4,20.6-45.6,32.9-45.8,33l-4.9,1.9
			C1431,580.4,1426.6,581.1,1422.2,581.1z"/>
	</g>
</g>
<g id="Edificios_Frente">
	<g>
		<path class="st2" d="M103.6,209.7L103.6,209.7c0.1,0,0.3,0.1,0.3,0.3v14.7h-0.5V210C103.4,209.8,103.5,209.7,103.6,209.7z"/>
		<g>
			<rect x="103.7" y="210.2" class="st3" width="22.6" height="4.4"/>
			<text transform="matrix(1 0 0 1 104.1547 213.6562)" class="st4 st5 st6">Patio taller</text>
		</g>
	</g>
	<g>
		<path class="st2" d="M633.3,439.5L633.3,439.5c0.1,0,0.3,0.1,0.3,0.3v14.7h-0.5v-14.7C633.1,439.7,633.2,439.5,633.3,439.5z"/>
		<g>
			<rect x="633.3" y="440.1" class="st3" width="17.7" height="3.4"/>
			<text transform="matrix(1 0 0 1 633.4053 442.7274)" class="st4 st5 st7">parque timiza</text>
		</g>
	</g>
	<g>
		<path class="st2" d="M657.2,406.9L657.2,406.9c0.1,0,0.3,0.1,0.3,0.3v14.7H657v-14.7C657,407.1,657.1,406.9,657.2,406.9z"/>
		<g>
			<rect x="657.3" y="407.5" class="st3" width="26.4" height="3.4"/>
			<text transform="matrix(1 0 0 1 658.2368 410.131)" class="st4 st5 st7">hospital de kennedy</text>
		</g>
	</g>
	<g>
		<path class="st2" d="M1009.2,579.3L1009.2,579.3c0.1,0,0.3,0.1,0.3,0.3v14.7h-0.5v-14.7C1009,579.5,1009.1,579.3,1009.2,579.3z"/>
		<g>
			<rect x="1009.3" y="579.9" class="st3" width="19.1" height="3.4"/>
			<text transform="matrix(1 0 0 1 1010.2274 582.5305)" class="st4 st5 st7">Centro Mayor</text>
		</g>
	</g>
	<g>
		<path class="st2" d="M949,585.3L949,585.3c0.1,0,0.3,0.1,0.3,0.3v14.7h-0.5v-14.7C948.8,585.4,948.9,585.3,949,585.3z"/>
		<g>
			<rect x="949" y="585.8" class="st3" width="24.8" height="3.4"/>
			<text transform="matrix(1 0 0 1 950.0194 588.4411)" class="st4 st5 st7">Escuela de cadetes</text>
		</g>
	</g>
	<g>
		<path class="st2" d="M1085.3,592.5L1085.3,592.5c0.1,0,0.3,0.1,0.3,0.3v14.7h-0.5v-14.7C1085.1,592.6,1085.2,592.5,1085.3,592.5z"
			/>
		<g>
			<rect x="1085.3" y="593" class="st3" width="25.9" height="3.4"/>
			<text transform="matrix(1 0 0 1 1086.3221 595.6426)" class="st4 st5 st7">Cementerio del sur</text>
		</g>
	</g>
	<g>
		<path class="st2" d="M1434.5,583.7L1434.5,583.7c0.1,0,0.3,0.1,0.3,0.3v14.7h-0.5V584C1434.3,583.8,1434.4,583.7,1434.5,583.7z"/>
		<g>
			<rect x="1434.6" y="584.2" class="st3" width="28.5" height="3.4"/>
			<text transform="matrix(1 0 0 1 1435.5363 586.833)" class="st4 st5 st7">Plaza de las américas</text>
		</g>
	</g>
	<g>
		<path class="st2" d="M1386.7,582.5L1386.7,582.5c0.1,0,0.3,0.1,0.3,0.3v14.7h-0.5v-14.7C1386.4,582.6,1386.6,582.5,1386.7,582.5z"
			/>
		<g>
			<rect x="1386.7" y="583" class="st3" width="16.7" height="3.4"/>
			<text transform="matrix(1 0 0 1 1387.689 585.6839)" class="st4 st5 st7">Santa Clara</text>
		</g>
	</g>
	<g>
		<path class="st2" d="M1518.7,531.1L1518.7,531.1c0.1,0,0.3,0.1,0.3,0.3V546h-0.5v-14.7C1518.5,531.2,1518.6,531.1,1518.7,531.1z"
			/>
		<g>
			<rect x="1518.7" y="531.6" class="st3" width="29.5" height="3.4"/>
			<text transform="matrix(1 0 0 1 1519.7158 534.2589)" class="st4 st5 st7">Parque Tercer Milenio</text>
		</g>
	</g>
	<g>
		<path class="st2" d="M326.1,262.5L326.1,262.5c0.1,0,0.3,0.1,0.3,0.3v14.7h-0.5v-14.7C325.9,262.6,326,262.5,326.1,262.5z"/>
		<g>
			<rect x="303" y="263.1" class="st3" width="23.1" height="3.6"/>
			<text transform="matrix(1 0 0 1 302.8933 265.6324)" class="st4 st5 st7">parque gibraltar</text>
		</g>
	</g>
	<g>
		<path class="st2" d="M414,323.1L414,323.1c0.1,0,0.3,0.1,0.3,0.3V338h-0.5v-14.7C413.8,323.2,413.9,323.1,414,323.1z"/>
		<g>
			<rect x="390.9" y="323.6" class="st3" width="23.1" height="3.6"/>
			<text transform="matrix(1 0 0 1 392.4341 326.2025)" class="st4 st5 st7">portal américas</text>
		</g>
	</g>
	<g>
		<path class="st8" d="M705.8,438.2L705.8,438.2c0.2,0,0.3,0.1,0.3,0.3v14.4c0,0.2-0.1,0.3-0.3,0.3l0,0c-0.2,0-0.3-0.1-0.3-0.3
			v-14.4C705.5,438.4,705.6,438.2,705.8,438.2z"/>
		<g>
			<rect x="705.8" y="438.8" class="st9" width="26.1" height="3.7"/>
			<text transform="matrix(1 0 0 1 706.6144 441.4411)" class="st10 st5 st7">av. poporo quimbaya</text>
		</g>
	</g>
	<g>
		<path class="st8" d="M1095.9,551.8L1095.9,551.8c0.2,0,0.3,0.1,0.3,0.3v14.4c0,0.2-0.1,0.3-0.3,0.3l0,0c-0.2,0-0.3-0.1-0.3-0.3
			v-14.4C1095.6,551.9,1095.8,551.8,1095.9,551.8z"/>
		<g>
			<rect x="1096" y="552.4" class="st9" width="18.5" height="3.7"/>
			<text transform="matrix(1 0 0 1 1096.7947 555.0349)" class="st10 st5 st7">autopista sur</text>
		</g>
	</g>
	<g>
		<path class="st8" d="M1131.9,561.1L1131.9,561.1c0.2,0,0.3,0.1,0.3,0.3v14.4c0,0.2-0.1,0.3-0.3,0.3l0,0c-0.2,0-0.3-0.1-0.3-0.3
			v-14.4C1131.6,561.3,1131.7,561.1,1131.9,561.1z"/>
		<g>
			<rect x="1131.9" y="561.7" class="st9" width="9.6" height="3.7"/>
			<text transform="matrix(1 0 0 1 1132.7253 564.3636)" class="st10 st5 st7">cra. 30</text>
		</g>
	</g>
	<g>
		<path class="st8" d="M1597.6,463.1L1597.6,463.1c0.2,0,0.3,0.1,0.3,0.3v14.4c0,0.2-0.1,0.3-0.3,0.3l0,0c-0.2,0-0.3-0.1-0.3-0.3
			v-14.4C1597.3,463.3,1597.4,463.1,1597.6,463.1z"/>
		<g>
			<rect x="1597.6" y="463.7" class="st9" width="11.2" height="3.7"/>
			<text transform="matrix(1 0 0 1 1598.4255 466.3484)" class="st10 st5 st7">Calle 19</text>
		</g>
	</g>
	<g>
		<path class="st8" d="M1588.1,491.9L1588.1,491.9c0.2,0,0.3,0.1,0.3,0.3v14.4c0,0.2-0.1,0.3-0.3,0.3l0,0c-0.2,0-0.3-0.1-0.3-0.3
			v-14.4C1587.8,492.1,1587.9,491.9,1588.1,491.9z"/>
		<g>
			<rect x="1588.1" y="492.5" class="st9" width="10.3" height="3.7"/>
			<text transform="matrix(1 0 0 1 1588.9658 495.1485)" class="st10 st5 st7">cra. 10ª</text>
		</g>
	</g>
	<g>
		<path class="st8" d="M1602.6,519.6L1602.6,519.6c0.2,0,0.3,0.1,0.3,0.3v14.4c0,0.2-0.1,0.3-0.3,0.3l0,0c-0.2,0-0.3-0.1-0.3-0.3
			v-14.4C1602.3,519.7,1602.5,519.6,1602.6,519.6z"/>
		<g>
			<rect x="1602.7" y="520.1" class="st9" width="9.6" height="3.7"/>
			<text transform="matrix(1 0 0 1 1603.4841 522.7723)" class="st10 st5 st7">cra. 7ª</text>
		</g>
	</g>
	<g>
		<path class="st8" d="M1729,296L1729,296c0.2,0,0.3,0.1,0.3,0.3v14.4c0,0.2-0.1,0.3-0.3,0.3l0,0c-0.2,0-0.3-0.1-0.3-0.3v-14.4
			C1728.7,296.1,1728.8,296,1729,296z"/>
		<g>
			<rect x="1729" y="296.5" class="st9" width="9.6" height="3.7"/>
			<text transform="matrix(1 0 0 1 1729.8274 299.1783)" class="st10 st5 st7">cra. 7ª</text>
		</g>
	</g>
	<g>
		<path class="st8" d="M1724.8,209.7L1724.8,209.7c0.2,0,0.3,0.1,0.3,0.3v14.4c0,0.2-0.1,0.3-0.3,0.3l0,0c-0.2,0-0.3-0.1-0.3-0.3
			V210C1724.5,209.8,1724.7,209.7,1724.8,209.7z"/>
		<g>
			<rect x="1724.9" y="210.2" class="st9" width="9.6" height="3.7"/>
			<text transform="matrix(1 0 0 1 1725.6887 212.8871)" class="st10 st5 st7">cra. 13</text>
		</g>
	</g>
	<g>
		<path class="st2" d="M1587.3,531.6L1587.3,531.6c0.1,0,0.3,0.1,0.3,0.3v14.7h-0.5v-14.7C1587,531.7,1587.2,531.6,1587.3,531.6z"/>
		<g>
			<rect x="1587.3" y="532.1" class="st3" width="22.9" height="3.4"/>
			<text transform="matrix(1 0 0 1 1588.2944 534.7648)" class="st4 st5 st7">Plaza de bolivar</text>
		</g>
	</g>
	<g>
		<path class="st2" d="M1556.4,505.7L1556.4,505.7c0.1,0,0.3,0.1,0.3,0.3v14.7h-0.5V506C1556.1,505.8,1556.2,505.7,1556.4,505.7z"/>
		<g>
			<rect x="1556.4" y="506.2" class="st3" width="19.2" height="3.4"/>
			<text transform="matrix(1 0 0 1 1557.347 508.8583)" class="st4 st5 st7">San victorino</text>
		</g>
	</g>
	<g>
		<path class="st2" d="M1647.8,426.5L1647.8,426.5c0.1,0,0.3,0.1,0.3,0.3v14.7h-0.5v-14.7C1647.6,426.6,1647.7,426.5,1647.8,426.5z"
			/>
		<g>
			<rect x="1647.8" y="427.1" class="st3" width="28.5" height="3.4"/>
			<text transform="matrix(1 0 0 1 1648.8062 429.7133)" class="st4 st5 st7">Hotel tequendama</text>
		</g>
	</g>
	<g>
		<path class="st2" d="M1679.4,442.9L1679.4,442.9c0.1,0,0.3,0.1,0.3,0.3v14.7h-0.5v-14.7C1679.1,443,1679.2,442.9,1679.4,442.9z"/>
		<g>
			<rect x="1679.4" y="443.5" class="st3" width="36.2" height="3.4"/>
			<text transform="matrix(1 0 0 1 1680.3442 446.0878)" class="st4 st5 st7">Parque de la independencia</text>
		</g>
	</g>
	<g>
		<path class="st2" d="M1687.4,412.9L1687.4,412.9c0.1,0,0.3,0.1,0.3,0.3v14.7h-0.5v-14.7C1687.2,413,1687.3,412.9,1687.4,412.9z"/>
		<g>
			<rect x="1687.4" y="413.4" class="st3" width="23.9" height="3.4"/>
			<text transform="matrix(1 0 0 1 1688.4141 416.0337)" class="st4 st5 st7">Plaza SantaMaría</text>
		</g>
	</g>
	<g>
		<path class="st2" d="M1689.3,425.3L1689.3,425.3c0.1,0,0.3,0.1,0.3,0.3v14.7h-0.5v-14.7C1689,425.4,1689.1,425.3,1689.3,425.3z"/>
		<g>
			<rect x="1689.3" y="425.9" class="st3" width="15.6" height="3.4"/>
			<text transform="matrix(1 0 0 1 1690.2828 428.5109)" class="st4 st5 st7">Planetario</text>
		</g>
	</g>
	<g>
		<path class="st2" d="M1738,327.9L1738,327.9c0.1,0,0.3,0.1,0.3,0.3v14.7h-0.5v-14.7C1737.8,328.1,1737.9,327.9,1738,327.9z"/>
		<g>
			<rect x="1738" y="328.5" class="st3" width="29.6" height="3.4"/>
			<text transform="matrix(1 0 0 1 1739.0078 331.1197)" class="st4 st5 st7">Universidad Javeriana</text>
		</g>
	</g>
	<g>
		<path class="st2" d="M1753.9,281L1753.9,281c0.1,0,0.3,0.1,0.3,0.3V296h-0.5v-14.7C1753.6,281.1,1753.7,281,1753.9,281z"/>
		<g>
			<rect x="1753.9" y="281.6" class="st3" width="22.2" height="3.4"/>
			<text transform="matrix(1 0 0 1 1754.8584 284.188)" class="st4 st5 st7">Hospital Militar</text>
		</g>
	</g>
	<g>
		<path class="st2" d="M1751.1,174L1751.1,174c0.1,0,0.3,0.1,0.3,0.3V189h-0.5v-14.7C1750.8,174.1,1750.9,174,1751.1,174z"/>
		<g>
			<rect x="1751.1" y="174.6" class="st3" width="24.7" height="3.4"/>
			<text transform="matrix(1 0 0 1 1752.0493 177.2149)" class="st4 st5 st7">Iglesia de Lourdes</text>
		</g>
	</g>
	<g>
		<path class="st2" d="M1832.1,101.8L1832.1,101.8c0.1,0,0.3,0.1,0.3,0.3v14.7h-0.5v-14.7C1831.9,101.9,1832,101.8,1832.1,101.8z"/>
		<g>
			<rect x="1832.1" y="102.3" class="st3" width="24.7" height="3.4"/>
			<text transform="matrix(1 0 0 1 1833.1138 104.9755)" class="st4 st5 st7">Gimnasio Moderno</text>
		</g>
	</g>
	<g>
		<path class="st2" d="M1803.1,121L1803.1,121c0.1,0,0.3,0.1,0.3,0.3V136h-0.5v-14.7C1802.9,121.1,1803,121,1803.1,121z"/>
		<g>
			<rect x="1803.2" y="121.5" class="st3" width="18.4" height="3.4"/>
			<text transform="matrix(1 0 0 1 1804.1313 124.1432)" class="st4 st5 st7">Avenida Chile</text>
		</g>
	</g>
	<g>
		<path class="st2" d="M1783.4,107.3L1783.4,107.3c0.1,0,0.3,0.1,0.3,0.3v14.7h-0.5v-14.7C1783.1,107.4,1783.2,107.3,1783.4,107.3z"
			/>
		<g>
			<rect x="1783.4" y="107.9" class="st3" width="31.3" height="3.4"/>
			<text transform="matrix(1 0 0 1 1784.3469 110.4916)" class="st4 st5 st7">Universidad Pedagógica</text>
		</g>
	</g>
	<g>
		<path class="st2" d="M1792,69L1792,69c0.1,0,0.3,0.1,0.3,0.3V84h-0.5V69.3C1791.7,69.1,1791.8,69,1792,69z"/>
		<g>
			<rect x="1792" y="69.5" class="st3" width="11.7" height="3.4"/>
			<text transform="matrix(1 0 0 1 1792.9426 72.1772)" class="st4 st5 st7">Unilago</text>
		</g>
	</g>
	<g>
		<path class="st2" d="M1757.9,203.1L1757.9,203.1c0.1,0,0.3,0.1,0.3,0.3V218h-0.5v-14.7C1757.6,203.2,1757.7,203.1,1757.9,203.1z"
			/>
		<g>
			<rect x="1757.9" y="203.6" class="st3" width="28.5" height="3.4"/>
			<text transform="matrix(1 0 0 1 1758.8745 206.2863)" class="st4 st5 st7">Parque de los Hippies</text>
		</g>
	</g>
	<g>
		<path class="st2" d="M1725,358.2L1725,358.2c0.1,0,0.3,0.1,0.3,0.3v14.7h-0.5v-14.7C1724.7,358.3,1724.8,358.2,1725,358.2z"/>
		<g>
			<rect x="1725" y="358.7" class="st3" width="22.7" height="3.4"/>
			<text transform="matrix(1 0 0 1 1725.9707 361.3733)" class="st4 st5 st7">Parque Nacional</text>
		</g>
	</g>
</g>
</svg>
